# xmcd
#
# Track frame offsets: 
#        210
#        12671
#        25345
#        37997
#        49910
#        62665
#        75837
#        89871
#        102844
#        115921
#        129133
#        141870
#        155128
#        168566
#        184110
#        197742
#        211976
#        226843
#        239289
#        252352
#        266196
#        280294
#        295195
#
# Disc length: 4140 seconds
#
# Revision: 1
# Processed by: cddbd v1.5.2PL0 Copyright (c) Steve Scherf et al.
# Submitted via: ExactAudioCopyFreeDBPlugin 1.0
#
DISCID=4e102a17
DTITLE=Henry Thomas - Ragtime Texas: Complete Recorded Works (1927-192
DTITLE=9)
DYEAR=2000
DGENRE=Blues
TTITLE0=John Henry
TTITLE1=Cottonfield Blues
TTITLE2=Arkansas
TTITLE3=The Fox and the Hounds
TTITLE4=The Little Red Caboose
TTITLE5=Bob McKinney
TTITLE6=Red River Blues
TTITLE7=Honey, Won't You Allow Me One More Chance?
TTITLE8=Run, Mollie, Run
TTITLE9=Shanty Blues
TTITLE10=Woodhouse Blues
TTITLE11=Jonah in the Wilderness
TTITLE12=When the Train Comes Along
TTITLE13=Bull-Doze Blues
TTITLE14=Don't Ease Me In
TTITLE15=Texas Easy Street Blues
TTITLE16=Texas Worried Blues
TTITLE17=Fishing Blues
TTITLE18=Old Country Stomp
TTITLE19=Charmin' Betsy
TTITLE20=Lovin' Babe
TTITLE21=Railroadin' Some
TTITLE22=Don't Leave Me Here
EXTD=
EXTT0=
EXTT1=
EXTT2=
EXTT3=
EXTT4=
EXTT5=
EXTT6=
EXTT7=
EXTT8=
EXTT9=
EXTT10=
EXTT11=
EXTT12=
EXTT13=
EXTT14=
EXTT15=
EXTT16=
EXTT17=
EXTT18=
EXTT19=
EXTT20=
EXTT21=
EXTT22=
PLAYORDER=
